<mxfile host="app.diagrams.net" modified="2023-10-05T20:36:56.169Z" agent="Mozilla/5.0 (Windows NT 10.0; Win64; x64) AppleWebKit/537.36 (KHTML, like Gecko) Chrome/117.0.0.0 Safari/537.36" etag="hry1VilDOANNly5umoBv" version="22.0.3" type="device">
  <diagram name="PÃ¡gina-1" id="oRnJn_29_Af217XgSJlQ">
    <mxGraphModel dx="2334" dy="893" grid="1" gridSize="10" guides="1" tooltips="1" connect="1" arrows="1" fold="1" page="1" pageScale="1" pageWidth="827" pageHeight="1169" math="0" shadow="0">
      <root>
        <mxCell id="0" />
        <mxCell id="1" parent="0" />
        <mxCell id="fudCeHpY_Y2oh4nWV5DY-1" value="MODULE" style="rounded=0;whiteSpace=wrap;html=1;" vertex="1" parent="1">
          <mxGeometry x="-150" y="640" width="490" height="70" as="geometry" />
        </mxCell>
        <mxCell id="fudCeHpY_Y2oh4nWV5DY-3" value="" style="endArrow=none;html=1;rounded=0;entryX=0.5;entryY=1;entryDx=0;entryDy=0;exitX=0.526;exitY=-0.034;exitDx=0;exitDy=0;exitPerimeter=0;" edge="1" parent="1" source="fudCeHpY_Y2oh4nWV5DY-1" target="fudCeHpY_Y2oh4nWV5DY-4">
          <mxGeometry width="50" height="50" relative="1" as="geometry">
            <mxPoint x="110" y="630" as="sourcePoint" />
            <mxPoint x="147" y="500" as="targetPoint" />
          </mxGeometry>
        </mxCell>
        <mxCell id="fudCeHpY_Y2oh4nWV5DY-4" value="course code" style="ellipse;whiteSpace=wrap;html=1;aspect=fixed;" vertex="1" parent="1">
          <mxGeometry x="80" y="510" width="60" height="60" as="geometry" />
        </mxCell>
        <mxCell id="fudCeHpY_Y2oh4nWV5DY-5" value="module name" style="ellipse;whiteSpace=wrap;html=1;aspect=fixed;" vertex="1" parent="1">
          <mxGeometry x="290" y="510" width="60" height="60" as="geometry" />
        </mxCell>
        <mxCell id="fudCeHpY_Y2oh4nWV5DY-6" value="" style="endArrow=none;html=1;rounded=0;exitX=0.953;exitY=0.024;exitDx=0;exitDy=0;exitPerimeter=0;entryX=0.5;entryY=1;entryDx=0;entryDy=0;" edge="1" parent="1" source="fudCeHpY_Y2oh4nWV5DY-1" target="fudCeHpY_Y2oh4nWV5DY-5">
          <mxGeometry width="50" height="50" relative="1" as="geometry">
            <mxPoint x="170" y="650" as="sourcePoint" />
            <mxPoint x="170" y="580" as="targetPoint" />
          </mxGeometry>
        </mxCell>
        <mxCell id="fudCeHpY_Y2oh4nWV5DY-7" value="begin data" style="ellipse;whiteSpace=wrap;html=1;aspect=fixed;" vertex="1" parent="1">
          <mxGeometry x="220" y="510" width="60" height="60" as="geometry" />
        </mxCell>
        <mxCell id="fudCeHpY_Y2oh4nWV5DY-8" value="" style="endArrow=none;html=1;rounded=0;entryX=0.5;entryY=1;entryDx=0;entryDy=0;exitX=0.816;exitY=0.027;exitDx=0;exitDy=0;exitPerimeter=0;" edge="1" parent="1" source="fudCeHpY_Y2oh4nWV5DY-1" target="fudCeHpY_Y2oh4nWV5DY-7">
          <mxGeometry width="50" height="50" relative="1" as="geometry">
            <mxPoint x="230" y="640" as="sourcePoint" />
            <mxPoint x="170" y="580" as="targetPoint" />
          </mxGeometry>
        </mxCell>
        <mxCell id="fudCeHpY_Y2oh4nWV5DY-10" value="" style="endArrow=none;html=1;rounded=0;entryX=0.5;entryY=1;entryDx=0;entryDy=0;exitX=0.38;exitY=-0.034;exitDx=0;exitDy=0;exitPerimeter=0;" edge="1" parent="1" source="fudCeHpY_Y2oh4nWV5DY-1" target="fudCeHpY_Y2oh4nWV5DY-11">
          <mxGeometry width="50" height="50" relative="1" as="geometry">
            <mxPoint x="170" y="710" as="sourcePoint" />
            <mxPoint x="150" y="840" as="targetPoint" />
          </mxGeometry>
        </mxCell>
        <mxCell id="fudCeHpY_Y2oh4nWV5DY-11" value="is active&amp;nbsp;" style="ellipse;whiteSpace=wrap;html=1;aspect=fixed;" vertex="1" parent="1">
          <mxGeometry x="10" y="510" width="60" height="60" as="geometry" />
        </mxCell>
        <mxCell id="fudCeHpY_Y2oh4nWV5DY-12" value="status" style="ellipse;whiteSpace=wrap;html=1;aspect=fixed;" vertex="1" parent="1">
          <mxGeometry x="150" y="510" width="60" height="60" as="geometry" />
        </mxCell>
        <mxCell id="fudCeHpY_Y2oh4nWV5DY-13" value="created at" style="ellipse;whiteSpace=wrap;html=1;aspect=fixed;" vertex="1" parent="1">
          <mxGeometry x="-70" y="510" width="60" height="60" as="geometry" />
        </mxCell>
        <mxCell id="fudCeHpY_Y2oh4nWV5DY-14" value="updated at" style="ellipse;whiteSpace=wrap;html=1;aspect=fixed;" vertex="1" parent="1">
          <mxGeometry x="-150" y="510" width="60" height="60" as="geometry" />
        </mxCell>
        <mxCell id="fudCeHpY_Y2oh4nWV5DY-15" value="" style="endArrow=none;html=1;rounded=0;exitX=0.669;exitY=-0.014;exitDx=0;exitDy=0;entryX=0.5;entryY=1;entryDx=0;entryDy=0;exitPerimeter=0;" edge="1" parent="1" source="fudCeHpY_Y2oh4nWV5DY-1" target="fudCeHpY_Y2oh4nWV5DY-12">
          <mxGeometry width="50" height="50" relative="1" as="geometry">
            <mxPoint x="219" y="745" as="sourcePoint" />
            <mxPoint x="210" y="840" as="targetPoint" />
          </mxGeometry>
        </mxCell>
        <mxCell id="fudCeHpY_Y2oh4nWV5DY-16" value="" style="endArrow=none;html=1;rounded=0;entryX=0.5;entryY=1;entryDx=0;entryDy=0;exitX=0.226;exitY=-0.044;exitDx=0;exitDy=0;exitPerimeter=0;" edge="1" parent="1" source="fudCeHpY_Y2oh4nWV5DY-1" target="fudCeHpY_Y2oh4nWV5DY-13">
          <mxGeometry width="50" height="50" relative="1" as="geometry">
            <mxPoint x="270" y="710" as="sourcePoint" />
            <mxPoint x="256" y="835" as="targetPoint" />
          </mxGeometry>
        </mxCell>
        <mxCell id="fudCeHpY_Y2oh4nWV5DY-17" value="" style="endArrow=none;html=1;rounded=0;entryX=0.5;entryY=1;entryDx=0;entryDy=0;" edge="1" parent="1" target="fudCeHpY_Y2oh4nWV5DY-14">
          <mxGeometry width="50" height="50" relative="1" as="geometry">
            <mxPoint x="-120" y="640" as="sourcePoint" />
            <mxPoint x="320" y="815" as="targetPoint" />
          </mxGeometry>
        </mxCell>
        <mxCell id="fudCeHpY_Y2oh4nWV5DY-20" value="INITIATIVE" style="rounded=0;whiteSpace=wrap;html=1;" vertex="1" parent="1">
          <mxGeometry x="860" y="640" width="320" height="70" as="geometry" />
        </mxCell>
        <mxCell id="fudCeHpY_Y2oh4nWV5DY-21" value="created at" style="ellipse;whiteSpace=wrap;html=1;aspect=fixed;" vertex="1" parent="1">
          <mxGeometry x="1070" y="490" width="60" height="60" as="geometry" />
        </mxCell>
        <mxCell id="fudCeHpY_Y2oh4nWV5DY-22" value="updated at" style="ellipse;whiteSpace=wrap;html=1;aspect=fixed;" vertex="1" parent="1">
          <mxGeometry x="1140" y="490" width="60" height="60" as="geometry" />
        </mxCell>
        <mxCell id="fudCeHpY_Y2oh4nWV5DY-24" value="" style="endArrow=none;html=1;rounded=0;entryX=0.5;entryY=1;entryDx=0;entryDy=0;exitX=0.75;exitY=0;exitDx=0;exitDy=0;" edge="1" parent="1" target="fudCeHpY_Y2oh4nWV5DY-21" source="fudCeHpY_Y2oh4nWV5DY-20">
          <mxGeometry width="50" height="50" relative="1" as="geometry">
            <mxPoint x="830" y="840" as="sourcePoint" />
            <mxPoint x="756" y="565" as="targetPoint" />
          </mxGeometry>
        </mxCell>
        <mxCell id="fudCeHpY_Y2oh4nWV5DY-25" value="" style="endArrow=none;html=1;rounded=0;entryX=0.5;entryY=1;entryDx=0;entryDy=0;exitX=0.97;exitY=-0.011;exitDx=0;exitDy=0;exitPerimeter=0;" edge="1" parent="1" target="fudCeHpY_Y2oh4nWV5DY-22" source="fudCeHpY_Y2oh4nWV5DY-20">
          <mxGeometry width="50" height="50" relative="1" as="geometry">
            <mxPoint x="884" y="482" as="sourcePoint" />
            <mxPoint x="884" y="587" as="targetPoint" />
          </mxGeometry>
        </mxCell>
        <mxCell id="fudCeHpY_Y2oh4nWV5DY-26" value="is active&amp;nbsp;" style="ellipse;whiteSpace=wrap;html=1;aspect=fixed;" vertex="1" parent="1">
          <mxGeometry x="920" y="490" width="60" height="60" as="geometry" />
        </mxCell>
        <mxCell id="fudCeHpY_Y2oh4nWV5DY-28" value="" style="endArrow=none;html=1;rounded=0;exitX=0.25;exitY=0;exitDx=0;exitDy=0;entryX=0.5;entryY=1;entryDx=0;entryDy=0;" edge="1" parent="1" source="fudCeHpY_Y2oh4nWV5DY-20" target="fudCeHpY_Y2oh4nWV5DY-26">
          <mxGeometry width="50" height="50" relative="1" as="geometry">
            <mxPoint x="1009" y="720" as="sourcePoint" />
            <mxPoint x="850" y="800" as="targetPoint" />
          </mxGeometry>
        </mxCell>
        <mxCell id="fudCeHpY_Y2oh4nWV5DY-29" value="" style="endArrow=none;html=1;rounded=0;exitX=0.05;exitY=-0.004;exitDx=0;exitDy=0;exitPerimeter=0;entryX=0.5;entryY=1;entryDx=0;entryDy=0;" edge="1" parent="1" source="fudCeHpY_Y2oh4nWV5DY-20" target="fudCeHpY_Y2oh4nWV5DY-30">
          <mxGeometry width="50" height="50" relative="1" as="geometry">
            <mxPoint x="606" y="649" as="sourcePoint" />
            <mxPoint x="890" y="560" as="targetPoint" />
          </mxGeometry>
        </mxCell>
        <mxCell id="fudCeHpY_Y2oh4nWV5DY-30" value="initiative name" style="ellipse;whiteSpace=wrap;html=1;aspect=fixed;" vertex="1" parent="1">
          <mxGeometry x="850" y="490" width="60" height="60" as="geometry" />
        </mxCell>
        <mxCell id="fudCeHpY_Y2oh4nWV5DY-31" value="scope" style="ellipse;whiteSpace=wrap;html=1;aspect=fixed;" vertex="1" parent="1">
          <mxGeometry x="990" y="490" width="60" height="60" as="geometry" />
        </mxCell>
        <mxCell id="fudCeHpY_Y2oh4nWV5DY-32" value="" style="endArrow=none;html=1;rounded=0;exitX=0.5;exitY=0;exitDx=0;exitDy=0;entryX=0.5;entryY=1;entryDx=0;entryDy=0;" edge="1" parent="1" source="fudCeHpY_Y2oh4nWV5DY-20" target="fudCeHpY_Y2oh4nWV5DY-31">
          <mxGeometry width="50" height="50" relative="1" as="geometry">
            <mxPoint x="903" y="648" as="sourcePoint" />
            <mxPoint x="890" y="560" as="targetPoint" />
          </mxGeometry>
        </mxCell>
        <mxCell id="fudCeHpY_Y2oh4nWV5DY-33" value="CONNECT" style="rhombus;whiteSpace=wrap;html=1;" vertex="1" parent="1">
          <mxGeometry x="520" y="635" width="120" height="80" as="geometry" />
        </mxCell>
        <mxCell id="fudCeHpY_Y2oh4nWV5DY-36" value="(1,n)" style="text;html=1;align=center;verticalAlign=middle;resizable=0;points=[];autosize=1;strokeColor=none;fillColor=none;" vertex="1" parent="1">
          <mxGeometry x="340" y="680" width="50" height="30" as="geometry" />
        </mxCell>
        <mxCell id="fudCeHpY_Y2oh4nWV5DY-39" value="(1,n)" style="text;html=1;align=center;verticalAlign=middle;resizable=0;points=[];autosize=1;strokeColor=none;fillColor=none;" vertex="1" parent="1">
          <mxGeometry x="810" y="680" width="50" height="30" as="geometry" />
        </mxCell>
        <mxCell id="fudCeHpY_Y2oh4nWV5DY-40" value="COURSE&amp;nbsp;" style="rounded=0;whiteSpace=wrap;html=1;" vertex="1" parent="1">
          <mxGeometry x="470" y="280" width="200" height="70" as="geometry" />
        </mxCell>
        <mxCell id="fudCeHpY_Y2oh4nWV5DY-47" value="" style="endArrow=none;html=1;rounded=0;exitX=0.164;exitY=-0.022;exitDx=0;exitDy=0;exitPerimeter=0;entryX=1;entryY=1;entryDx=0;entryDy=0;" edge="1" parent="1" source="fudCeHpY_Y2oh4nWV5DY-40" target="fudCeHpY_Y2oh4nWV5DY-48">
          <mxGeometry width="50" height="50" relative="1" as="geometry">
            <mxPoint x="216" y="289" as="sourcePoint" />
            <mxPoint x="500" y="200" as="targetPoint" />
          </mxGeometry>
        </mxCell>
        <mxCell id="fudCeHpY_Y2oh4nWV5DY-48" value="course type&amp;nbsp;" style="ellipse;whiteSpace=wrap;html=1;aspect=fixed;" vertex="1" parent="1">
          <mxGeometry x="340" y="130" width="60" height="60" as="geometry" />
        </mxCell>
        <mxCell id="fudCeHpY_Y2oh4nWV5DY-49" value="director&amp;nbsp;" style="ellipse;whiteSpace=wrap;html=1;aspect=fixed;" vertex="1" parent="1">
          <mxGeometry x="737" y="100" width="60" height="60" as="geometry" />
        </mxCell>
        <mxCell id="fudCeHpY_Y2oh4nWV5DY-50" value="" style="endArrow=none;html=1;rounded=0;exitX=0.937;exitY=-0.012;exitDx=0;exitDy=0;exitPerimeter=0;entryX=0;entryY=1;entryDx=0;entryDy=0;" edge="1" parent="1" source="fudCeHpY_Y2oh4nWV5DY-40" target="fudCeHpY_Y2oh4nWV5DY-49">
          <mxGeometry width="50" height="50" relative="1" as="geometry">
            <mxPoint x="513" y="288" as="sourcePoint" />
            <mxPoint x="500" y="200" as="targetPoint" />
          </mxGeometry>
        </mxCell>
        <mxCell id="fudCeHpY_Y2oh4nWV5DY-57" value="created at" style="ellipse;whiteSpace=wrap;html=1;aspect=fixed;" vertex="1" parent="1">
          <mxGeometry x="540" y="100" width="60" height="60" as="geometry" />
        </mxCell>
        <mxCell id="fudCeHpY_Y2oh4nWV5DY-58" value="updated at" style="ellipse;whiteSpace=wrap;html=1;aspect=fixed;" vertex="1" parent="1">
          <mxGeometry x="650" y="100" width="60" height="60" as="geometry" />
        </mxCell>
        <mxCell id="fudCeHpY_Y2oh4nWV5DY-59" value="is active&amp;nbsp;" style="ellipse;whiteSpace=wrap;html=1;aspect=fixed;" vertex="1" parent="1">
          <mxGeometry x="440" y="90" width="60" height="60" as="geometry" />
        </mxCell>
        <mxCell id="fudCeHpY_Y2oh4nWV5DY-60" value="" style="endArrow=none;html=1;rounded=0;exitX=0.313;exitY=0.024;exitDx=0;exitDy=0;exitPerimeter=0;entryX=0.5;entryY=1;entryDx=0;entryDy=0;" edge="1" parent="1" source="fudCeHpY_Y2oh4nWV5DY-40" target="fudCeHpY_Y2oh4nWV5DY-59">
          <mxGeometry width="50" height="50" relative="1" as="geometry">
            <mxPoint x="513" y="288" as="sourcePoint" />
            <mxPoint x="380" y="200" as="targetPoint" />
          </mxGeometry>
        </mxCell>
        <mxCell id="fudCeHpY_Y2oh4nWV5DY-61" value="" style="endArrow=none;html=1;rounded=0;exitX=0.5;exitY=0;exitDx=0;exitDy=0;entryX=0.5;entryY=1;entryDx=0;entryDy=0;" edge="1" parent="1" source="fudCeHpY_Y2oh4nWV5DY-40" target="fudCeHpY_Y2oh4nWV5DY-57">
          <mxGeometry width="50" height="50" relative="1" as="geometry">
            <mxPoint x="523" y="298" as="sourcePoint" />
            <mxPoint x="390" y="210" as="targetPoint" />
          </mxGeometry>
        </mxCell>
        <mxCell id="fudCeHpY_Y2oh4nWV5DY-62" value="" style="endArrow=none;html=1;rounded=0;exitX=0.798;exitY=-0.012;exitDx=0;exitDy=0;exitPerimeter=0;entryX=0.359;entryY=0.987;entryDx=0;entryDy=0;entryPerimeter=0;" edge="1" parent="1" source="fudCeHpY_Y2oh4nWV5DY-40" target="fudCeHpY_Y2oh4nWV5DY-58">
          <mxGeometry width="50" height="50" relative="1" as="geometry">
            <mxPoint x="533" y="308" as="sourcePoint" />
            <mxPoint x="400" y="220" as="targetPoint" />
          </mxGeometry>
        </mxCell>
        <mxCell id="fudCeHpY_Y2oh4nWV5DY-64" value="" style="endArrow=none;html=1;rounded=0;exitX=1;exitY=0.5;exitDx=0;exitDy=0;entryX=0;entryY=0.5;entryDx=0;entryDy=0;" edge="1" parent="1" source="fudCeHpY_Y2oh4nWV5DY-1" target="fudCeHpY_Y2oh4nWV5DY-33">
          <mxGeometry width="50" height="50" relative="1" as="geometry">
            <mxPoint x="410" y="710" as="sourcePoint" />
            <mxPoint x="460" y="660" as="targetPoint" />
          </mxGeometry>
        </mxCell>
        <mxCell id="fudCeHpY_Y2oh4nWV5DY-65" value="" style="endArrow=none;html=1;rounded=0;exitX=1;exitY=0.5;exitDx=0;exitDy=0;entryX=0;entryY=0.5;entryDx=0;entryDy=0;" edge="1" parent="1" source="fudCeHpY_Y2oh4nWV5DY-33" target="fudCeHpY_Y2oh4nWV5DY-20">
          <mxGeometry width="50" height="50" relative="1" as="geometry">
            <mxPoint x="720" y="700" as="sourcePoint" />
            <mxPoint x="770" y="650" as="targetPoint" />
          </mxGeometry>
        </mxCell>
        <mxCell id="fudCeHpY_Y2oh4nWV5DY-67" value="REGISTER" style="rhombus;whiteSpace=wrap;html=1;" vertex="1" parent="1">
          <mxGeometry x="390" y="470" width="120" height="80" as="geometry" />
        </mxCell>
        <mxCell id="fudCeHpY_Y2oh4nWV5DY-68" value="" style="endArrow=none;html=1;rounded=0;exitX=1;exitY=0.5;exitDx=0;exitDy=0;entryX=0.377;entryY=0.882;entryDx=0;entryDy=0;entryPerimeter=0;" edge="1" parent="1" source="fudCeHpY_Y2oh4nWV5DY-1" target="fudCeHpY_Y2oh4nWV5DY-67">
          <mxGeometry width="50" height="50" relative="1" as="geometry">
            <mxPoint x="340" y="680" as="sourcePoint" />
            <mxPoint x="390" y="630" as="targetPoint" />
          </mxGeometry>
        </mxCell>
        <mxCell id="fudCeHpY_Y2oh4nWV5DY-69" value="ASSOCIATE" style="rhombus;whiteSpace=wrap;html=1;" vertex="1" parent="1">
          <mxGeometry x="617" y="450" width="120" height="80" as="geometry" />
        </mxCell>
        <mxCell id="fudCeHpY_Y2oh4nWV5DY-70" value="" style="endArrow=none;html=1;rounded=0;exitX=0;exitY=0.5;exitDx=0;exitDy=0;entryX=0.659;entryY=0.845;entryDx=0;entryDy=0;entryPerimeter=0;" edge="1" parent="1" source="fudCeHpY_Y2oh4nWV5DY-20" target="fudCeHpY_Y2oh4nWV5DY-69">
          <mxGeometry width="50" height="50" relative="1" as="geometry">
            <mxPoint x="860" y="670" as="sourcePoint" />
            <mxPoint x="810" y="600" as="targetPoint" />
          </mxGeometry>
        </mxCell>
        <mxCell id="fudCeHpY_Y2oh4nWV5DY-71" value="" style="endArrow=none;html=1;rounded=0;entryX=0.452;entryY=1.02;entryDx=0;entryDy=0;entryPerimeter=0;exitX=1;exitY=0;exitDx=0;exitDy=0;" edge="1" parent="1" source="fudCeHpY_Y2oh4nWV5DY-67" target="fudCeHpY_Y2oh4nWV5DY-40">
          <mxGeometry width="50" height="50" relative="1" as="geometry">
            <mxPoint x="470" y="480" as="sourcePoint" />
            <mxPoint x="520" y="430" as="targetPoint" />
            <Array as="points">
              <mxPoint x="560" y="350" />
            </Array>
          </mxGeometry>
        </mxCell>
        <mxCell id="fudCeHpY_Y2oh4nWV5DY-72" value="" style="endArrow=none;html=1;rounded=0;entryX=0.45;entryY=1;entryDx=0;entryDy=0;entryPerimeter=0;exitX=0;exitY=0;exitDx=0;exitDy=0;" edge="1" parent="1" source="fudCeHpY_Y2oh4nWV5DY-69" target="fudCeHpY_Y2oh4nWV5DY-40">
          <mxGeometry width="50" height="50" relative="1" as="geometry">
            <mxPoint x="490" y="500" as="sourcePoint" />
            <mxPoint x="571" y="362" as="targetPoint" />
          </mxGeometry>
        </mxCell>
        <mxCell id="fudCeHpY_Y2oh4nWV5DY-73" value="(1,n)" style="text;html=1;align=center;verticalAlign=middle;resizable=0;points=[];autosize=1;strokeColor=none;fillColor=none;" vertex="1" parent="1">
          <mxGeometry x="320" y="605" width="50" height="30" as="geometry" />
        </mxCell>
        <mxCell id="fudCeHpY_Y2oh4nWV5DY-74" value="(1,n)" style="text;html=1;align=center;verticalAlign=middle;resizable=0;points=[];autosize=1;strokeColor=none;fillColor=none;" vertex="1" parent="1">
          <mxGeometry x="810" y="610" width="50" height="30" as="geometry" />
        </mxCell>
        <mxCell id="fudCeHpY_Y2oh4nWV5DY-75" value="CLASS" style="rounded=0;whiteSpace=wrap;html=1;" vertex="1" parent="1">
          <mxGeometry x="970" y="280" width="200" height="70" as="geometry" />
        </mxCell>
        <mxCell id="fudCeHpY_Y2oh4nWV5DY-76" value="" style="endArrow=none;html=1;rounded=0;exitX=0.164;exitY=-0.022;exitDx=0;exitDy=0;exitPerimeter=0;entryX=1;entryY=1;entryDx=0;entryDy=0;" edge="1" parent="1" source="fudCeHpY_Y2oh4nWV5DY-75" target="fudCeHpY_Y2oh4nWV5DY-77">
          <mxGeometry width="50" height="50" relative="1" as="geometry">
            <mxPoint x="716" y="289" as="sourcePoint" />
            <mxPoint x="1000" y="200" as="targetPoint" />
          </mxGeometry>
        </mxCell>
        <mxCell id="fudCeHpY_Y2oh4nWV5DY-77" value="customer name" style="ellipse;whiteSpace=wrap;html=1;aspect=fixed;" vertex="1" parent="1">
          <mxGeometry x="840" y="130" width="60" height="60" as="geometry" />
        </mxCell>
        <mxCell id="fudCeHpY_Y2oh4nWV5DY-78" value="is active" style="ellipse;whiteSpace=wrap;html=1;aspect=fixed;" vertex="1" parent="1">
          <mxGeometry x="1237" y="100" width="60" height="60" as="geometry" />
        </mxCell>
        <mxCell id="fudCeHpY_Y2oh4nWV5DY-79" value="" style="endArrow=none;html=1;rounded=0;exitX=0.937;exitY=-0.012;exitDx=0;exitDy=0;exitPerimeter=0;entryX=0;entryY=1;entryDx=0;entryDy=0;" edge="1" parent="1" source="fudCeHpY_Y2oh4nWV5DY-75" target="fudCeHpY_Y2oh4nWV5DY-78">
          <mxGeometry width="50" height="50" relative="1" as="geometry">
            <mxPoint x="1013" y="288" as="sourcePoint" />
            <mxPoint x="1000" y="200" as="targetPoint" />
          </mxGeometry>
        </mxCell>
        <mxCell id="fudCeHpY_Y2oh4nWV5DY-80" value="created at" style="ellipse;whiteSpace=wrap;html=1;aspect=fixed;" vertex="1" parent="1">
          <mxGeometry x="1040" y="100" width="60" height="60" as="geometry" />
        </mxCell>
        <mxCell id="fudCeHpY_Y2oh4nWV5DY-81" value="updated at" style="ellipse;whiteSpace=wrap;html=1;aspect=fixed;" vertex="1" parent="1">
          <mxGeometry x="1150" y="100" width="60" height="60" as="geometry" />
        </mxCell>
        <mxCell id="fudCeHpY_Y2oh4nWV5DY-82" value="start year&amp;nbsp;" style="ellipse;whiteSpace=wrap;html=1;aspect=fixed;" vertex="1" parent="1">
          <mxGeometry x="940" y="90" width="60" height="60" as="geometry" />
        </mxCell>
        <mxCell id="fudCeHpY_Y2oh4nWV5DY-83" value="" style="endArrow=none;html=1;rounded=0;exitX=0.313;exitY=0.024;exitDx=0;exitDy=0;exitPerimeter=0;entryX=0.5;entryY=1;entryDx=0;entryDy=0;" edge="1" parent="1" source="fudCeHpY_Y2oh4nWV5DY-75" target="fudCeHpY_Y2oh4nWV5DY-82">
          <mxGeometry width="50" height="50" relative="1" as="geometry">
            <mxPoint x="1013" y="288" as="sourcePoint" />
            <mxPoint x="880" y="200" as="targetPoint" />
          </mxGeometry>
        </mxCell>
        <mxCell id="fudCeHpY_Y2oh4nWV5DY-84" value="" style="endArrow=none;html=1;rounded=0;exitX=0.5;exitY=0;exitDx=0;exitDy=0;entryX=0.5;entryY=1;entryDx=0;entryDy=0;" edge="1" parent="1" source="fudCeHpY_Y2oh4nWV5DY-75" target="fudCeHpY_Y2oh4nWV5DY-80">
          <mxGeometry width="50" height="50" relative="1" as="geometry">
            <mxPoint x="1023" y="298" as="sourcePoint" />
            <mxPoint x="890" y="210" as="targetPoint" />
          </mxGeometry>
        </mxCell>
        <mxCell id="fudCeHpY_Y2oh4nWV5DY-85" value="" style="endArrow=none;html=1;rounded=0;exitX=0.798;exitY=-0.012;exitDx=0;exitDy=0;exitPerimeter=0;entryX=0.359;entryY=0.987;entryDx=0;entryDy=0;entryPerimeter=0;" edge="1" parent="1" source="fudCeHpY_Y2oh4nWV5DY-75" target="fudCeHpY_Y2oh4nWV5DY-81">
          <mxGeometry width="50" height="50" relative="1" as="geometry">
            <mxPoint x="1033" y="308" as="sourcePoint" />
            <mxPoint x="900" y="220" as="targetPoint" />
          </mxGeometry>
        </mxCell>
        <mxCell id="fudCeHpY_Y2oh4nWV5DY-86" value="" style="endArrow=none;html=1;rounded=0;entryX=0;entryY=0.5;entryDx=0;entryDy=0;exitX=1;exitY=0.5;exitDx=0;exitDy=0;" edge="1" parent="1" source="fudCeHpY_Y2oh4nWV5DY-87" target="fudCeHpY_Y2oh4nWV5DY-75">
          <mxGeometry width="50" height="50" relative="1" as="geometry">
            <mxPoint x="730" y="370" as="sourcePoint" />
            <mxPoint x="780" y="320" as="targetPoint" />
          </mxGeometry>
        </mxCell>
        <mxCell id="fudCeHpY_Y2oh4nWV5DY-88" value="" style="endArrow=none;html=1;rounded=0;entryX=0;entryY=0.5;entryDx=0;entryDy=0;exitX=1;exitY=0.5;exitDx=0;exitDy=0;" edge="1" parent="1" source="fudCeHpY_Y2oh4nWV5DY-40" target="fudCeHpY_Y2oh4nWV5DY-87">
          <mxGeometry width="50" height="50" relative="1" as="geometry">
            <mxPoint x="670" y="315" as="sourcePoint" />
            <mxPoint x="970" y="315" as="targetPoint" />
          </mxGeometry>
        </mxCell>
        <mxCell id="fudCeHpY_Y2oh4nWV5DY-87" value="REGISTER" style="rhombus;whiteSpace=wrap;html=1;" vertex="1" parent="1">
          <mxGeometry x="760" y="275" width="120" height="80" as="geometry" />
        </mxCell>
        <mxCell id="fudCeHpY_Y2oh4nWV5DY-101" value="PARTNER" style="rounded=0;whiteSpace=wrap;html=1;" vertex="1" parent="1">
          <mxGeometry x="125" y="1000" width="900" height="70" as="geometry" />
        </mxCell>
        <mxCell id="fudCeHpY_Y2oh4nWV5DY-102" value="" style="endArrow=none;html=1;rounded=0;exitX=0.024;exitY=0.964;exitDx=0;exitDy=0;exitPerimeter=0;entryX=0.5;entryY=0;entryDx=0;entryDy=0;" edge="1" parent="1" source="fudCeHpY_Y2oh4nWV5DY-101" target="fudCeHpY_Y2oh4nWV5DY-103">
          <mxGeometry width="50" height="50" relative="1" as="geometry">
            <mxPoint x="61" y="1029" as="sourcePoint" />
            <mxPoint x="345" y="940" as="targetPoint" />
          </mxGeometry>
        </mxCell>
        <mxCell id="fudCeHpY_Y2oh4nWV5DY-103" value="partner name" style="ellipse;whiteSpace=wrap;html=1;aspect=fixed;" vertex="1" parent="1">
          <mxGeometry x="115" y="1290" width="60" height="60" as="geometry" />
        </mxCell>
        <mxCell id="fudCeHpY_Y2oh4nWV5DY-104" value="sector" style="ellipse;whiteSpace=wrap;html=1;aspect=fixed;" vertex="1" parent="1">
          <mxGeometry x="495" y="1290" width="60" height="60" as="geometry" />
        </mxCell>
        <mxCell id="fudCeHpY_Y2oh4nWV5DY-105" value="" style="endArrow=none;html=1;rounded=0;exitX=0.436;exitY=0.997;exitDx=0;exitDy=0;entryX=0.5;entryY=0;entryDx=0;entryDy=0;exitPerimeter=0;" edge="1" parent="1" source="fudCeHpY_Y2oh4nWV5DY-101" target="fudCeHpY_Y2oh4nWV5DY-104">
          <mxGeometry width="50" height="50" relative="1" as="geometry">
            <mxPoint x="358" y="1028" as="sourcePoint" />
            <mxPoint x="345" y="940" as="targetPoint" />
          </mxGeometry>
        </mxCell>
        <mxCell id="fudCeHpY_Y2oh4nWV5DY-106" value="created at" style="ellipse;whiteSpace=wrap;html=1;aspect=fixed;" vertex="1" parent="1">
          <mxGeometry x="265" y="1290" width="60" height="60" as="geometry" />
        </mxCell>
        <mxCell id="fudCeHpY_Y2oh4nWV5DY-107" value="updated at" style="ellipse;whiteSpace=wrap;html=1;aspect=fixed;" vertex="1" parent="1">
          <mxGeometry x="335" y="1290" width="60" height="60" as="geometry" />
        </mxCell>
        <mxCell id="fudCeHpY_Y2oh4nWV5DY-108" value="is active" style="ellipse;whiteSpace=wrap;html=1;aspect=fixed;" vertex="1" parent="1">
          <mxGeometry x="185" y="1290" width="60" height="60" as="geometry" />
        </mxCell>
        <mxCell id="fudCeHpY_Y2oh4nWV5DY-109" value="" style="endArrow=none;html=1;rounded=0;exitX=0.103;exitY=0.997;exitDx=0;exitDy=0;exitPerimeter=0;entryX=0.5;entryY=0;entryDx=0;entryDy=0;" edge="1" parent="1" source="fudCeHpY_Y2oh4nWV5DY-101" target="fudCeHpY_Y2oh4nWV5DY-108">
          <mxGeometry width="50" height="50" relative="1" as="geometry">
            <mxPoint x="358" y="1028" as="sourcePoint" />
            <mxPoint x="225" y="940" as="targetPoint" />
          </mxGeometry>
        </mxCell>
        <mxCell id="fudCeHpY_Y2oh4nWV5DY-110" value="" style="endArrow=none;html=1;rounded=0;exitX=0.196;exitY=1.011;exitDx=0;exitDy=0;entryX=0.5;entryY=0;entryDx=0;entryDy=0;exitPerimeter=0;" edge="1" parent="1" source="fudCeHpY_Y2oh4nWV5DY-101" target="fudCeHpY_Y2oh4nWV5DY-106">
          <mxGeometry width="50" height="50" relative="1" as="geometry">
            <mxPoint x="368" y="1038" as="sourcePoint" />
            <mxPoint x="235" y="950" as="targetPoint" />
          </mxGeometry>
        </mxCell>
        <mxCell id="fudCeHpY_Y2oh4nWV5DY-111" value="" style="endArrow=none;html=1;rounded=0;exitX=0.266;exitY=1.003;exitDx=0;exitDy=0;entryX=0.5;entryY=0;entryDx=0;entryDy=0;exitPerimeter=0;" edge="1" parent="1" source="fudCeHpY_Y2oh4nWV5DY-101" target="fudCeHpY_Y2oh4nWV5DY-107">
          <mxGeometry width="50" height="50" relative="1" as="geometry">
            <mxPoint x="378" y="1048" as="sourcePoint" />
            <mxPoint x="245" y="960" as="targetPoint" />
          </mxGeometry>
        </mxCell>
        <mxCell id="fudCeHpY_Y2oh4nWV5DY-117" value="contact email" style="ellipse;whiteSpace=wrap;html=1;aspect=fixed;" vertex="1" parent="1">
          <mxGeometry x="415" y="1290" width="60" height="60" as="geometry" />
        </mxCell>
        <mxCell id="fudCeHpY_Y2oh4nWV5DY-118" value="password" style="ellipse;whiteSpace=wrap;html=1;aspect=fixed;" vertex="1" parent="1">
          <mxGeometry x="575" y="1290" width="60" height="60" as="geometry" />
        </mxCell>
        <mxCell id="fudCeHpY_Y2oh4nWV5DY-120" value="contact phone" style="ellipse;whiteSpace=wrap;html=1;aspect=fixed;" vertex="1" parent="1">
          <mxGeometry x="925" y="1290" width="60" height="60" as="geometry" />
        </mxCell>
        <mxCell id="fudCeHpY_Y2oh4nWV5DY-121" value="rate for project&amp;nbsp;" style="ellipse;whiteSpace=wrap;html=1;aspect=fixed;" vertex="1" parent="1">
          <mxGeometry x="655" y="1290" width="60" height="60" as="geometry" />
        </mxCell>
        <mxCell id="fudCeHpY_Y2oh4nWV5DY-122" value="branch" style="ellipse;whiteSpace=wrap;html=1;aspect=fixed;" vertex="1" parent="1">
          <mxGeometry x="735" y="1290" width="60" height="60" as="geometry" />
        </mxCell>
        <mxCell id="fudCeHpY_Y2oh4nWV5DY-124" value="responsible name" style="ellipse;whiteSpace=wrap;html=1;aspect=fixed;" vertex="1" parent="1">
          <mxGeometry x="805" y="1285" width="70" height="70" as="geometry" />
        </mxCell>
        <mxCell id="fudCeHpY_Y2oh4nWV5DY-125" value="" style="endArrow=none;html=1;rounded=0;entryX=0.5;entryY=0;entryDx=0;entryDy=0;" edge="1" parent="1" target="fudCeHpY_Y2oh4nWV5DY-117">
          <mxGeometry width="50" height="50" relative="1" as="geometry">
            <mxPoint x="445" y="1070" as="sourcePoint" />
            <mxPoint x="595" y="1290" as="targetPoint" />
          </mxGeometry>
        </mxCell>
        <mxCell id="fudCeHpY_Y2oh4nWV5DY-126" value="" style="endArrow=none;html=1;rounded=0;entryX=0.5;entryY=0;entryDx=0;entryDy=0;exitX=0.533;exitY=0.991;exitDx=0;exitDy=0;exitPerimeter=0;" edge="1" parent="1" source="fudCeHpY_Y2oh4nWV5DY-101" target="fudCeHpY_Y2oh4nWV5DY-118">
          <mxGeometry width="50" height="50" relative="1" as="geometry">
            <mxPoint x="455" y="1080" as="sourcePoint" />
            <mxPoint x="665" y="1287" as="targetPoint" />
          </mxGeometry>
        </mxCell>
        <mxCell id="fudCeHpY_Y2oh4nWV5DY-131" value="" style="endArrow=none;html=1;rounded=0;entryX=0.5;entryY=0;entryDx=0;entryDy=0;exitX=0.614;exitY=1.016;exitDx=0;exitDy=0;exitPerimeter=0;" edge="1" parent="1" source="fudCeHpY_Y2oh4nWV5DY-101" target="fudCeHpY_Y2oh4nWV5DY-121">
          <mxGeometry width="50" height="50" relative="1" as="geometry">
            <mxPoint x="615" y="1079" as="sourcePoint" />
            <mxPoint x="615" y="1300" as="targetPoint" />
          </mxGeometry>
        </mxCell>
        <mxCell id="fudCeHpY_Y2oh4nWV5DY-132" value="" style="endArrow=none;html=1;rounded=0;entryX=0.5;entryY=0;entryDx=0;entryDy=0;exitX=0.665;exitY=1.003;exitDx=0;exitDy=0;exitPerimeter=0;" edge="1" parent="1" source="fudCeHpY_Y2oh4nWV5DY-101" target="fudCeHpY_Y2oh4nWV5DY-122">
          <mxGeometry width="50" height="50" relative="1" as="geometry">
            <mxPoint x="688" y="1081" as="sourcePoint" />
            <mxPoint x="695" y="1300" as="targetPoint" />
          </mxGeometry>
        </mxCell>
        <mxCell id="fudCeHpY_Y2oh4nWV5DY-133" value="" style="endArrow=none;html=1;rounded=0;entryX=0.5;entryY=0;entryDx=0;entryDy=0;exitX=0.874;exitY=1.005;exitDx=0;exitDy=0;exitPerimeter=0;" edge="1" parent="1" source="fudCeHpY_Y2oh4nWV5DY-101" target="fudCeHpY_Y2oh4nWV5DY-120">
          <mxGeometry width="50" height="50" relative="1" as="geometry">
            <mxPoint x="698" y="1091" as="sourcePoint" />
            <mxPoint x="815" y="1370" as="targetPoint" />
          </mxGeometry>
        </mxCell>
        <mxCell id="fudCeHpY_Y2oh4nWV5DY-134" value="" style="endArrow=none;html=1;rounded=0;exitX=0.779;exitY=0.997;exitDx=0;exitDy=0;exitPerimeter=0;" edge="1" parent="1" source="fudCeHpY_Y2oh4nWV5DY-101" target="fudCeHpY_Y2oh4nWV5DY-124">
          <mxGeometry width="50" height="50" relative="1" as="geometry">
            <mxPoint x="708" y="1101" as="sourcePoint" />
            <mxPoint x="825" y="1380" as="targetPoint" />
          </mxGeometry>
        </mxCell>
        <mxCell id="fudCeHpY_Y2oh4nWV5DY-136" value="" style="endArrow=none;html=1;rounded=0;entryX=0.317;entryY=1.001;entryDx=0;entryDy=0;exitX=0.5;exitY=0;exitDx=0;exitDy=0;entryPerimeter=0;" edge="1" parent="1" source="fudCeHpY_Y2oh4nWV5DY-138" target="fudCeHpY_Y2oh4nWV5DY-20">
          <mxGeometry width="50" height="50" relative="1" as="geometry">
            <mxPoint x="810" y="960" as="sourcePoint" />
            <mxPoint x="955" y="940" as="targetPoint" />
          </mxGeometry>
        </mxCell>
        <mxCell id="fudCeHpY_Y2oh4nWV5DY-139" value="" style="endArrow=none;html=1;rounded=0;entryX=0.5;entryY=1;entryDx=0;entryDy=0;exitX=0.923;exitY=0.015;exitDx=0;exitDy=0;exitPerimeter=0;" edge="1" parent="1" source="fudCeHpY_Y2oh4nWV5DY-101" target="fudCeHpY_Y2oh4nWV5DY-138">
          <mxGeometry width="50" height="50" relative="1" as="geometry">
            <mxPoint x="956" y="1001" as="sourcePoint" />
            <mxPoint x="961" y="710" as="targetPoint" />
          </mxGeometry>
        </mxCell>
        <mxCell id="fudCeHpY_Y2oh4nWV5DY-138" value="ALLOCATED" style="rhombus;whiteSpace=wrap;html=1;" vertex="1" parent="1">
          <mxGeometry x="900" y="820" width="120" height="80" as="geometry" />
        </mxCell>
        <mxCell id="fudCeHpY_Y2oh4nWV5DY-140" value="(1,n)" style="text;html=1;align=center;verticalAlign=middle;resizable=0;points=[];autosize=1;strokeColor=none;fillColor=none;" vertex="1" parent="1">
          <mxGeometry x="670" y="280" width="50" height="30" as="geometry" />
        </mxCell>
        <mxCell id="fudCeHpY_Y2oh4nWV5DY-141" value="(1,n)" style="text;html=1;align=center;verticalAlign=middle;resizable=0;points=[];autosize=1;strokeColor=none;fillColor=none;" vertex="1" parent="1">
          <mxGeometry x="925" y="280" width="50" height="30" as="geometry" />
        </mxCell>
        <mxCell id="fudCeHpY_Y2oh4nWV5DY-142" value="(1,n)" style="text;html=1;align=center;verticalAlign=middle;resizable=0;points=[];autosize=1;strokeColor=none;fillColor=none;" vertex="1" parent="1">
          <mxGeometry x="910" y="960" width="50" height="30" as="geometry" />
        </mxCell>
        <mxCell id="fudCeHpY_Y2oh4nWV5DY-143" value="(1,n)" style="text;html=1;align=center;verticalAlign=middle;resizable=0;points=[];autosize=1;strokeColor=none;fillColor=none;" vertex="1" parent="1">
          <mxGeometry x="910" y="715" width="50" height="30" as="geometry" />
        </mxCell>
        <mxCell id="fudCeHpY_Y2oh4nWV5DY-146" value="" style="endArrow=none;html=1;rounded=0;exitX=0.5;exitY=0;exitDx=0;exitDy=0;entryX=0.811;entryY=1.016;entryDx=0;entryDy=0;entryPerimeter=0;" edge="1" parent="1" source="fudCeHpY_Y2oh4nWV5DY-147" target="fudCeHpY_Y2oh4nWV5DY-1">
          <mxGeometry width="50" height="50" relative="1" as="geometry">
            <mxPoint x="190" y="980" as="sourcePoint" />
            <mxPoint x="240" y="930" as="targetPoint" />
          </mxGeometry>
        </mxCell>
        <mxCell id="fudCeHpY_Y2oh4nWV5DY-148" value="" style="endArrow=none;html=1;rounded=0;exitX=0.134;exitY=-0.014;exitDx=0;exitDy=0;exitPerimeter=0;entryX=0.5;entryY=1;entryDx=0;entryDy=0;" edge="1" parent="1" source="fudCeHpY_Y2oh4nWV5DY-101" target="fudCeHpY_Y2oh4nWV5DY-147">
          <mxGeometry width="50" height="50" relative="1" as="geometry">
            <mxPoint x="246" y="999" as="sourcePoint" />
            <mxPoint x="247" y="711" as="targetPoint" />
          </mxGeometry>
        </mxCell>
        <mxCell id="fudCeHpY_Y2oh4nWV5DY-147" value="ALLOCATED" style="rhombus;whiteSpace=wrap;html=1;" vertex="1" parent="1">
          <mxGeometry x="185" y="820" width="120" height="80" as="geometry" />
        </mxCell>
        <mxCell id="fudCeHpY_Y2oh4nWV5DY-149" value="(1,1)" style="text;html=1;align=center;verticalAlign=middle;resizable=0;points=[];autosize=1;strokeColor=none;fillColor=none;" vertex="1" parent="1">
          <mxGeometry x="265" y="720" width="50" height="30" as="geometry" />
        </mxCell>
        <mxCell id="fudCeHpY_Y2oh4nWV5DY-150" value="(1,1)" style="text;html=1;align=center;verticalAlign=middle;resizable=0;points=[];autosize=1;strokeColor=none;fillColor=none;" vertex="1" parent="1">
          <mxGeometry x="255" y="960" width="50" height="30" as="geometry" />
        </mxCell>
        <mxCell id="fudCeHpY_Y2oh4nWV5DY-151" value="ANALYST" style="rounded=0;whiteSpace=wrap;html=1;" vertex="1" parent="1">
          <mxGeometry x="-280" y="280" width="450" height="70" as="geometry" />
        </mxCell>
        <mxCell id="fudCeHpY_Y2oh4nWV5DY-152" value="" style="endArrow=none;html=1;rounded=0;entryX=0.5;entryY=1;entryDx=0;entryDy=0;exitX=0.043;exitY=-0.018;exitDx=0;exitDy=0;exitPerimeter=0;" edge="1" parent="1" source="fudCeHpY_Y2oh4nWV5DY-151" target="fudCeHpY_Y2oh4nWV5DY-153">
          <mxGeometry width="50" height="50" relative="1" as="geometry">
            <mxPoint x="-200" y="275" as="sourcePoint" />
            <mxPoint x="-120" y="209" as="targetPoint" />
          </mxGeometry>
        </mxCell>
        <mxCell id="fudCeHpY_Y2oh4nWV5DY-153" value="name" style="ellipse;whiteSpace=wrap;html=1;aspect=fixed;" vertex="1" parent="1">
          <mxGeometry x="-290" y="125" width="60" height="60" as="geometry" />
        </mxCell>
        <mxCell id="fudCeHpY_Y2oh4nWV5DY-154" value="is active" style="ellipse;whiteSpace=wrap;html=1;aspect=fixed;" vertex="1" parent="1">
          <mxGeometry x="20" y="125" width="60" height="60" as="geometry" />
        </mxCell>
        <mxCell id="fudCeHpY_Y2oh4nWV5DY-155" value="" style="endArrow=none;html=1;rounded=0;entryX=0.5;entryY=1;entryDx=0;entryDy=0;exitX=0.73;exitY=0.003;exitDx=0;exitDy=0;exitPerimeter=0;" edge="1" parent="1" source="fudCeHpY_Y2oh4nWV5DY-151" target="fudCeHpY_Y2oh4nWV5DY-154">
          <mxGeometry width="50" height="50" relative="1" as="geometry">
            <mxPoint x="140" y="275" as="sourcePoint" />
            <mxPoint x="-120" y="209" as="targetPoint" />
          </mxGeometry>
        </mxCell>
        <mxCell id="fudCeHpY_Y2oh4nWV5DY-156" value="created at" style="ellipse;whiteSpace=wrap;html=1;aspect=fixed;" vertex="1" parent="1">
          <mxGeometry x="-140" y="125" width="60" height="60" as="geometry" />
        </mxCell>
        <mxCell id="fudCeHpY_Y2oh4nWV5DY-157" value="updated at" style="ellipse;whiteSpace=wrap;html=1;aspect=fixed;" vertex="1" parent="1">
          <mxGeometry x="-60" y="125" width="60" height="60" as="geometry" />
        </mxCell>
        <mxCell id="fudCeHpY_Y2oh4nWV5DY-158" value="email" style="ellipse;whiteSpace=wrap;html=1;aspect=fixed;" vertex="1" parent="1">
          <mxGeometry x="-220" y="125" width="60" height="60" as="geometry" />
        </mxCell>
        <mxCell id="fudCeHpY_Y2oh4nWV5DY-159" value="" style="endArrow=none;html=1;rounded=0;exitX=0.205;exitY=0.003;exitDx=0;exitDy=0;exitPerimeter=0;entryX=0.5;entryY=1;entryDx=0;entryDy=0;" edge="1" parent="1" source="fudCeHpY_Y2oh4nWV5DY-151" target="fudCeHpY_Y2oh4nWV5DY-158">
          <mxGeometry width="50" height="50" relative="1" as="geometry">
            <mxPoint x="-107" y="297" as="sourcePoint" />
            <mxPoint x="-240" y="209" as="targetPoint" />
          </mxGeometry>
        </mxCell>
        <mxCell id="fudCeHpY_Y2oh4nWV5DY-160" value="" style="endArrow=none;html=1;rounded=0;exitX=0.37;exitY=-0.002;exitDx=0;exitDy=0;entryX=0.5;entryY=1;entryDx=0;entryDy=0;exitPerimeter=0;" edge="1" parent="1" source="fudCeHpY_Y2oh4nWV5DY-151" target="fudCeHpY_Y2oh4nWV5DY-156">
          <mxGeometry width="50" height="50" relative="1" as="geometry">
            <mxPoint x="-97" y="307" as="sourcePoint" />
            <mxPoint x="-230" y="219" as="targetPoint" />
          </mxGeometry>
        </mxCell>
        <mxCell id="fudCeHpY_Y2oh4nWV5DY-161" value="" style="endArrow=none;html=1;rounded=0;exitX=0.552;exitY=0.003;exitDx=0;exitDy=0;exitPerimeter=0;entryX=0.5;entryY=1;entryDx=0;entryDy=0;" edge="1" parent="1" source="fudCeHpY_Y2oh4nWV5DY-151" target="fudCeHpY_Y2oh4nWV5DY-157">
          <mxGeometry width="50" height="50" relative="1" as="geometry">
            <mxPoint x="-87" y="317" as="sourcePoint" />
            <mxPoint x="60" y="165" as="targetPoint" />
          </mxGeometry>
        </mxCell>
        <mxCell id="fudCeHpY_Y2oh4nWV5DY-164" value="password" style="ellipse;whiteSpace=wrap;html=1;aspect=fixed;" vertex="1" parent="1">
          <mxGeometry x="90" y="125" width="60" height="60" as="geometry" />
        </mxCell>
        <mxCell id="fudCeHpY_Y2oh4nWV5DY-165" value="role" style="ellipse;whiteSpace=wrap;html=1;aspect=fixed;" vertex="1" parent="1">
          <mxGeometry x="160" y="125" width="60" height="60" as="geometry" />
        </mxCell>
        <mxCell id="fudCeHpY_Y2oh4nWV5DY-166" value="" style="endArrow=none;html=1;rounded=0;entryX=0.5;entryY=1;entryDx=0;entryDy=0;exitX=0.881;exitY=-0.028;exitDx=0;exitDy=0;exitPerimeter=0;" edge="1" parent="1" source="fudCeHpY_Y2oh4nWV5DY-151" target="fudCeHpY_Y2oh4nWV5DY-164">
          <mxGeometry width="50" height="50" relative="1" as="geometry">
            <mxPoint x="97" y="292" as="sourcePoint" />
            <mxPoint x="100" y="195" as="targetPoint" />
          </mxGeometry>
        </mxCell>
        <mxCell id="fudCeHpY_Y2oh4nWV5DY-167" value="" style="endArrow=none;html=1;rounded=0;entryX=0.5;entryY=1;entryDx=0;entryDy=0;exitX=0.968;exitY=-0.003;exitDx=0;exitDy=0;exitPerimeter=0;" edge="1" parent="1" source="fudCeHpY_Y2oh4nWV5DY-151" target="fudCeHpY_Y2oh4nWV5DY-165">
          <mxGeometry width="50" height="50" relative="1" as="geometry">
            <mxPoint x="133" y="287" as="sourcePoint" />
            <mxPoint x="180" y="195" as="targetPoint" />
          </mxGeometry>
        </mxCell>
      </root>
    </mxGraphModel>
  </diagram>
</mxfile>
